STARTFONT 2.1
COMMENT
COMMENT Converted from OpenType font "courier_10_pitch.ttf" by "otf2bdf 3.0".
COMMENT
FONT -FreeType-Courier10 BT-Medium-R-Normal--12-90-100-100-P-61-ISO10646-1
SIZE 9 100 100
FONTBOUNDINGBOX 8 15 0 -4
STARTPROPERTIES 19
FOUNDRY "FreeType"
FAMILY_NAME "Courier10 BT"
WEIGHT_NAME "Medium"
SLANT "R"
SETWIDTH_NAME "Normal"
ADD_STYLE_NAME ""
PIXEL_SIZE 12
POINT_SIZE 90
RESOLUTION_X 100
RESOLUTION_Y 100
SPACING "P"
AVERAGE_WIDTH 61
CHARSET_REGISTRY "ISO10646"
CHARSET_ENCODING "1"
FONT_ASCENT 11
FONT_DESCENT 3
COPYRIGHT "Copyright 1990-1993 Bitstream Inc.  All rights reserved."
_OTF_FONTFILE "courier_10_pitch.ttf"
_OTF_PSNAME "Courier10PitchBT-Roman"
ENDPROPERTIES
CHARS 191
STARTCHAR 0020
ENCODING 32
SWIDTH 640 0
DWIDTH 8 0
BBX 0 0 0 0
BITMAP
ENDCHAR
STARTCHAR 0021
ENCODING 33
SWIDTH 640 0
DWIDTH 8 0
BBX 2 8 3 0
BITMAP
80
80
80
80
80
00
C0
C0
ENDCHAR
STARTCHAR 0022
ENCODING 34
SWIDTH 640 0
DWIDTH 8 0
BBX 3 3 2 5
BITMAP
A0
A0
A0
ENDCHAR
STARTCHAR 0023
ENCODING 35
SWIDTH 640 0
DWIDTH 8 0
BBX 5 9 1 -1
BITMAP
50
50
50
F8
50
F8
50
50
50
ENDCHAR
STARTCHAR 0024
ENCODING 36
SWIDTH 640 0
DWIDTH 8 0
BBX 5 11 1 -2
BITMAP
20
78
88
80
60
38
08
88
F0
20
20
ENDCHAR
STARTCHAR 0025
ENCODING 37
SWIDTH 640 0
DWIDTH 8 0
BBX 5 8 1 0
BITMAP
F0
90
F8
30
60
F8
48
78
ENDCHAR
STARTCHAR 0026
ENCODING 38
SWIDTH 640 0
DWIDTH 8 0
BBX 5 8 1 0
BITMAP
30
50
40
40
68
98
90
68
ENDCHAR
STARTCHAR 0027
ENCODING 39
SWIDTH 640 0
DWIDTH 8 0
BBX 1 3 3 5
BITMAP
80
80
80
ENDCHAR
STARTCHAR 0028
ENCODING 40
SWIDTH 640 0
DWIDTH 8 0
BBX 2 10 3 -2
BITMAP
40
40
80
80
80
80
80
80
40
40
ENDCHAR
STARTCHAR 0029
ENCODING 41
SWIDTH 640 0
DWIDTH 8 0
BBX 2 10 3 -2
BITMAP
80
80
40
40
40
40
40
40
80
80
ENDCHAR
STARTCHAR 002A
ENCODING 42
SWIDTH 640 0
DWIDTH 8 0
BBX 5 5 1 3
BITMAP
20
A8
F8
50
50
ENDCHAR
STARTCHAR 002B
ENCODING 43
SWIDTH 640 0
DWIDTH 8 0
BBX 7 7 0 1
BITMAP
10
10
10
FE
10
10
10
ENDCHAR
STARTCHAR 002C
ENCODING 44
SWIDTH 640 0
DWIDTH 8 0
BBX 3 3 2 -1
BITMAP
60
C0
80
ENDCHAR
STARTCHAR 002D
ENCODING 45
SWIDTH 640 0
DWIDTH 8 0
BBX 6 1 1 2
BITMAP
FC
ENDCHAR
STARTCHAR 002E
ENCODING 46
SWIDTH 640 0
DWIDTH 8 0
BBX 2 2 3 0
BITMAP
C0
C0
ENDCHAR
STARTCHAR 002F
ENCODING 47
SWIDTH 640 0
DWIDTH 8 0
BBX 5 9 1 0
BITMAP
08
08
10
10
20
20
40
40
80
ENDCHAR
STARTCHAR 0030
ENCODING 48
SWIDTH 640 0
DWIDTH 8 0
BBX 5 8 1 0
BITMAP
70
D8
88
88
88
88
D8
70
ENDCHAR
STARTCHAR 0031
ENCODING 49
SWIDTH 640 0
DWIDTH 8 0
BBX 5 8 2 0
BITMAP
E0
20
20
20
20
20
20
F8
ENDCHAR
STARTCHAR 0032
ENCODING 50
SWIDTH 640 0
DWIDTH 8 0
BBX 5 8 1 0
BITMAP
70
88
08
18
10
60
48
F8
ENDCHAR
STARTCHAR 0033
ENCODING 51
SWIDTH 640 0
DWIDTH 8 0
BBX 5 8 1 0
BITMAP
70
88
08
30
08
08
88
F0
ENDCHAR
STARTCHAR 0034
ENCODING 52
SWIDTH 640 0
DWIDTH 8 0
BBX 5 8 1 0
BITMAP
10
30
50
50
90
F8
10
38
ENDCHAR
STARTCHAR 0035
ENCODING 53
SWIDTH 640 0
DWIDTH 8 0
BBX 5 8 2 0
BITMAP
F0
80
80
F0
08
08
08
F0
ENDCHAR
STARTCHAR 0036
ENCODING 54
SWIDTH 640 0
DWIDTH 8 0
BBX 5 8 1 0
BITMAP
38
40
80
F0
88
88
88
70
ENDCHAR
STARTCHAR 0037
ENCODING 55
SWIDTH 640 0
DWIDTH 8 0
BBX 5 8 1 0
BITMAP
F8
88
10
10
10
20
20
20
ENDCHAR
STARTCHAR 0038
ENCODING 56
SWIDTH 640 0
DWIDTH 8 0
BBX 5 8 1 0
BITMAP
70
88
88
70
88
88
88
70
ENDCHAR
STARTCHAR 0039
ENCODING 57
SWIDTH 640 0
DWIDTH 8 0
BBX 5 8 1 0
BITMAP
70
88
88
88
78
08
10
E0
ENDCHAR
STARTCHAR 003A
ENCODING 58
SWIDTH 640 0
DWIDTH 8 0
BBX 2 5 3 0
BITMAP
C0
C0
00
C0
C0
ENDCHAR
STARTCHAR 003B
ENCODING 59
SWIDTH 640 0
DWIDTH 8 0
BBX 3 6 2 -1
BITMAP
60
60
00
60
40
C0
ENDCHAR
STARTCHAR 003C
ENCODING 60
SWIDTH 640 0
DWIDTH 8 0
BBX 6 6 0 1
BITMAP
0C
30
C0
C0
30
0C
ENDCHAR
STARTCHAR 003D
ENCODING 61
SWIDTH 640 0
DWIDTH 8 0
BBX 6 3 1 2
BITMAP
FC
00
FC
ENDCHAR
STARTCHAR 003E
ENCODING 62
SWIDTH 640 0
DWIDTH 8 0
BBX 6 6 1 1
BITMAP
C0
30
0C
0C
30
C0
ENDCHAR
STARTCHAR 003F
ENCODING 63
SWIDTH 640 0
DWIDTH 8 0
BBX 5 8 2 0
BITMAP
F0
88
08
10
20
00
60
60
ENDCHAR
STARTCHAR 0040
ENCODING 64
SWIDTH 640 0
DWIDTH 8 0
BBX 4 9 1 -1
BITMAP
70
90
B0
D0
D0
F0
80
C0
70
ENDCHAR
STARTCHAR 0041
ENCODING 65
SWIDTH 640 0
DWIDTH 8 0
BBX 8 8 0 0
BITMAP
78
18
2C
24
24
7E
42
E7
ENDCHAR
STARTCHAR 0042
ENCODING 66
SWIDTH 640 0
DWIDTH 8 0
BBX 6 8 0 0
BITMAP
F8
44
44
78
44
44
44
F8
ENDCHAR
STARTCHAR 0043
ENCODING 67
SWIDTH 640 0
DWIDTH 8 0
BBX 6 8 0 0
BITMAP
3C
44
84
80
80
80
44
38
ENDCHAR
STARTCHAR 0044
ENCODING 68
SWIDTH 640 0
DWIDTH 8 0
BBX 7 8 0 0
BITMAP
F8
44
42
42
42
42
44
F8
ENDCHAR
STARTCHAR 0045
ENCODING 69
SWIDTH 640 0
DWIDTH 8 0
BBX 6 8 0 0
BITMAP
FC
44
54
70
50
44
44
FC
ENDCHAR
STARTCHAR 0046
ENCODING 70
SWIDTH 640 0
DWIDTH 8 0
BBX 6 8 1 0
BITMAP
FC
44
54
70
50
40
40
F0
ENDCHAR
STARTCHAR 0047
ENCODING 71
SWIDTH 640 0
DWIDTH 8 0
BBX 7 8 0 0
BITMAP
3C
44
84
80
80
9E
44
3C
ENDCHAR
STARTCHAR 0048
ENCODING 72
SWIDTH 640 0
DWIDTH 8 0
BBX 7 8 0 0
BITMAP
EE
44
44
7C
44
44
44
EE
ENDCHAR
STARTCHAR 0049
ENCODING 73
SWIDTH 640 0
DWIDTH 8 0
BBX 5 8 1 0
BITMAP
F8
20
20
20
20
20
20
F8
ENDCHAR
STARTCHAR 004A
ENCODING 74
SWIDTH 640 0
DWIDTH 8 0
BBX 7 8 0 0
BITMAP
3E
08
08
08
08
88
88
70
ENDCHAR
STARTCHAR 004B
ENCODING 75
SWIDTH 640 0
DWIDTH 8 0
BBX 7 8 0 0
BITMAP
EE
48
50
60
58
48
44
E6
ENDCHAR
STARTCHAR 004C
ENCODING 76
SWIDTH 640 0
DWIDTH 8 0
BBX 6 8 1 0
BITMAP
F0
40
40
40
40
44
44
FC
ENDCHAR
STARTCHAR 004D
ENCODING 77
SWIDTH 640 0
DWIDTH 8 0
BBX 8 8 0 0
BITMAP
E7
66
66
5A
5A
52
42
E7
ENDCHAR
STARTCHAR 004E
ENCODING 78
SWIDTH 640 0
DWIDTH 8 0
BBX 7 8 0 0
BITMAP
CE
64
64
54
54
4C
4C
E4
ENDCHAR
STARTCHAR 004F
ENCODING 79
SWIDTH 640 0
DWIDTH 8 0
BBX 7 8 0 0
BITMAP
38
44
82
82
82
82
44
38
ENDCHAR
STARTCHAR 0050
ENCODING 80
SWIDTH 640 0
DWIDTH 8 0
BBX 6 8 1 0
BITMAP
F8
44
44
44
78
40
40
E0
ENDCHAR
STARTCHAR 0051
ENCODING 81
SWIDTH 640 0
DWIDTH 8 0
BBX 7 10 0 -2
BITMAP
38
44
82
82
82
82
44
38
20
7E
ENDCHAR
STARTCHAR 0052
ENCODING 82
SWIDTH 640 0
DWIDTH 8 0
BBX 7 8 0 0
BITMAP
F8
44
44
78
58
48
44
E6
ENDCHAR
STARTCHAR 0053
ENCODING 83
SWIDTH 640 0
DWIDTH 8 0
BBX 6 8 1 0
BITMAP
7C
84
80
F0
0C
84
84
F8
ENDCHAR
STARTCHAR 0054
ENCODING 84
SWIDTH 640 0
DWIDTH 8 0
BBX 7 8 0 0
BITMAP
FE
92
92
92
10
10
10
7C
ENDCHAR
STARTCHAR 0055
ENCODING 85
SWIDTH 640 0
DWIDTH 8 0
BBX 7 8 0 0
BITMAP
EE
44
44
44
44
44
44
38
ENDCHAR
STARTCHAR 0056
ENCODING 86
SWIDTH 640 0
DWIDTH 8 0
BBX 7 8 0 0
BITMAP
EE
44
44
44
28
28
28
10
ENDCHAR
STARTCHAR 0057
ENCODING 87
SWIDTH 640 0
DWIDTH 8 0
BBX 7 8 0 0
BITMAP
EE
84
54
74
6C
6C
6C
44
ENDCHAR
STARTCHAR 0058
ENCODING 88
SWIDTH 640 0
DWIDTH 8 0
BBX 6 8 1 0
BITMAP
CC
48
30
30
30
58
48
CC
ENDCHAR
STARTCHAR 0059
ENCODING 89
SWIDTH 640 0
DWIDTH 8 0
BBX 7 8 0 0
BITMAP
EE
44
28
28
10
10
10
7C
ENDCHAR
STARTCHAR 005A
ENCODING 90
SWIDTH 640 0
DWIDTH 8 0
BBX 5 8 1 0
BITMAP
F8
98
90
20
60
48
88
F8
ENDCHAR
STARTCHAR 005B
ENCODING 91
SWIDTH 640 0
DWIDTH 8 0
BBX 2 10 3 -2
BITMAP
C0
80
80
80
80
80
80
80
80
C0
ENDCHAR
STARTCHAR 005C
ENCODING 92
SWIDTH 640 0
DWIDTH 8 0
BBX 5 9 1 0
BITMAP
80
80
40
40
20
20
10
10
08
ENDCHAR
STARTCHAR 005D
ENCODING 93
SWIDTH 640 0
DWIDTH 8 0
BBX 2 10 3 -2
BITMAP
C0
40
40
40
40
40
40
40
40
C0
ENDCHAR
STARTCHAR 005E
ENCODING 94
SWIDTH 640 0
DWIDTH 8 0
BBX 4 3 2 5
BITMAP
60
60
90
ENDCHAR
STARTCHAR 005F
ENCODING 95
SWIDTH 640 0
DWIDTH 8 0
BBX 8 1 0 -4
BITMAP
FF
ENDCHAR
STARTCHAR 0060
ENCODING 96
SWIDTH 640 0
DWIDTH 8 0
BBX 4 2 2 6
BITMAP
C0
30
ENDCHAR
STARTCHAR 0061
ENCODING 97
SWIDTH 640 0
DWIDTH 8 0
BBX 6 6 1 0
BITMAP
70
08
08
78
88
FC
ENDCHAR
STARTCHAR 0062
ENCODING 98
SWIDTH 640 0
DWIDTH 8 0
BBX 7 8 0 0
BITMAP
C0
40
7C
66
42
42
66
FC
ENDCHAR
STARTCHAR 0063
ENCODING 99
SWIDTH 640 0
DWIDTH 8 0
BBX 6 6 1 0
BITMAP
7C
C4
80
80
C4
78
ENDCHAR
STARTCHAR 0064
ENCODING 100
SWIDTH 640 0
DWIDTH 8 0
BBX 7 8 1 0
BITMAP
0C
04
7C
CC
84
84
CC
76
ENDCHAR
STARTCHAR 0065
ENCODING 101
SWIDTH 640 0
DWIDTH 8 0
BBX 6 6 1 0
BITMAP
78
84
FC
80
C0
7C
ENDCHAR
STARTCHAR 0066
ENCODING 102
SWIDTH 640 0
DWIDTH 8 0
BBX 6 8 1 0
BITMAP
38
20
FC
20
20
20
20
FC
ENDCHAR
STARTCHAR 0067
ENCODING 103
SWIDTH 640 0
DWIDTH 8 0
BBX 6 8 1 -2
BITMAP
7C
88
88
88
88
78
08
70
ENDCHAR
STARTCHAR 0068
ENCODING 104
SWIDTH 640 0
DWIDTH 8 0
BBX 7 8 0 0
BITMAP
C0
40
78
44
44
44
44
EE
ENDCHAR
STARTCHAR 0069
ENCODING 105
SWIDTH 640 0
DWIDTH 8 0
BBX 5 9 1 0
BITMAP
20
20
00
E0
20
20
20
20
F8
ENDCHAR
STARTCHAR 006A
ENCODING 106
SWIDTH 640 0
DWIDTH 8 0
BBX 4 11 2 -2
BITMAP
10
10
00
F0
10
10
10
10
10
10
E0
ENDCHAR
STARTCHAR 006B
ENCODING 107
SWIDTH 640 0
DWIDTH 8 0
BBX 6 8 1 0
BITMAP
C0
40
5C
50
60
50
48
CC
ENDCHAR
STARTCHAR 006C
ENCODING 108
SWIDTH 640 0
DWIDTH 8 0
BBX 5 8 1 0
BITMAP
E0
20
20
20
20
20
20
F8
ENDCHAR
STARTCHAR 006D
ENCODING 109
SWIDTH 640 0
DWIDTH 8 0
BBX 7 6 0 0
BITMAP
FC
54
54
54
54
FE
ENDCHAR
STARTCHAR 006E
ENCODING 110
SWIDTH 640 0
DWIDTH 8 0
BBX 7 6 0 0
BITMAP
F8
44
44
44
44
EE
ENDCHAR
STARTCHAR 006F
ENCODING 111
SWIDTH 640 0
DWIDTH 8 0
BBX 6 6 1 0
BITMAP
78
CC
84
84
CC
78
ENDCHAR
STARTCHAR 0070
ENCODING 112
SWIDTH 640 0
DWIDTH 8 0
BBX 7 8 0 -2
BITMAP
DC
66
42
42
66
5C
40
F0
ENDCHAR
STARTCHAR 0071
ENCODING 113
SWIDTH 640 0
DWIDTH 8 0
BBX 7 8 1 -2
BITMAP
76
CC
84
84
CC
74
04
1E
ENDCHAR
STARTCHAR 0072
ENCODING 114
SWIDTH 640 0
DWIDTH 8 0
BBX 7 6 0 0
BITMAP
EE
30
20
20
20
F8
ENDCHAR
STARTCHAR 0073
ENCODING 115
SWIDTH 640 0
DWIDTH 8 0
BBX 5 6 1 0
BITMAP
78
88
E0
38
88
F0
ENDCHAR
STARTCHAR 0074
ENCODING 116
SWIDTH 640 0
DWIDTH 8 0
BBX 7 7 0 0
BITMAP
20
FC
20
20
20
22
1C
ENDCHAR
STARTCHAR 0075
ENCODING 117
SWIDTH 640 0
DWIDTH 8 0
BBX 7 6 0 0
BITMAP
CC
44
44
44
44
3E
ENDCHAR
STARTCHAR 0076
ENCODING 118
SWIDTH 640 0
DWIDTH 8 0
BBX 7 6 0 0
BITMAP
EE
44
68
28
28
10
ENDCHAR
STARTCHAR 0077
ENCODING 119
SWIDTH 640 0
DWIDTH 8 0
BBX 8 6 0 0
BITMAP
E7
42
5A
5A
6C
24
ENDCHAR
STARTCHAR 0078
ENCODING 120
SWIDTH 640 0
DWIDTH 8 0
BBX 7 6 1 0
BITMAP
EE
6C
18
38
64
EE
ENDCHAR
STARTCHAR 0079
ENCODING 121
SWIDTH 640 0
DWIDTH 8 0
BBX 7 8 0 -2
BITMAP
EE
44
24
28
10
10
20
F0
ENDCHAR
STARTCHAR 007A
ENCODING 122
SWIDTH 640 0
DWIDTH 8 0
BBX 5 6 1 0
BITMAP
F8
90
20
60
C8
F8
ENDCHAR
STARTCHAR 007B
ENCODING 123
SWIDTH 640 0
DWIDTH 8 0
BBX 4 10 2 -2
BITMAP
30
20
20
20
C0
20
20
20
20
30
ENDCHAR
STARTCHAR 007C
ENCODING 124
SWIDTH 640 0
DWIDTH 8 0
BBX 1 13 3 -3
BITMAP
80
80
80
80
80
80
80
80
80
80
80
80
80
ENDCHAR
STARTCHAR 007D
ENCODING 125
SWIDTH 640 0
DWIDTH 8 0
BBX 4 10 2 -2
BITMAP
C0
40
40
40
30
40
40
40
40
C0
ENDCHAR
STARTCHAR 007E
ENCODING 126
SWIDTH 640 0
DWIDTH 8 0
BBX 6 2 1 3
BITMAP
64
98
ENDCHAR
STARTCHAR 00A0
ENCODING 160
SWIDTH 640 0
DWIDTH 8 0
BBX 0 0 0 0
BITMAP
ENDCHAR
STARTCHAR 00A1
ENCODING 161
SWIDTH 640 0
DWIDTH 8 0
BBX 2 8 3 0
BITMAP
C0
C0
00
80
80
80
80
80
ENDCHAR
STARTCHAR 00A2
ENCODING 162
SWIDTH 640 0
DWIDTH 8 0
BBX 5 9 1 -1
BITMAP
20
20
78
88
80
88
78
20
20
ENDCHAR
STARTCHAR 00A3
ENCODING 163
SWIDTH 640 0
DWIDTH 8 0
BBX 5 8 2 0
BITMAP
70
90
80
80
F0
40
40
F8
ENDCHAR
STARTCHAR 00A4
ENCODING 164
SWIDTH 640 0
DWIDTH 8 0
BBX 7 7 0 2
BITMAP
82
74
48
44
44
7C
82
ENDCHAR
STARTCHAR 00A5
ENCODING 165
SWIDTH 640 0
DWIDTH 8 0
BBX 7 8 0 0
BITMAP
EE
44
E6
28
FE
10
10
7C
ENDCHAR
STARTCHAR 00A6
ENCODING 166
SWIDTH 640 0
DWIDTH 8 0
BBX 1 11 3 -2
BITMAP
80
80
80
80
80
00
80
80
80
80
80
ENDCHAR
STARTCHAR 00A7
ENCODING 167
SWIDTH 640 0
DWIDTH 8 0
BBX 6 9 1 -1
BITMAP
78
48
C0
B0
D8
24
14
48
78
ENDCHAR
STARTCHAR 00A8
ENCODING 168
SWIDTH 640 0
DWIDTH 8 0
BBX 4 1 2 7
BITMAP
90
ENDCHAR
STARTCHAR 00A9
ENCODING 169
SWIDTH 640 0
DWIDTH 8 0
BBX 7 7 0 1
BITMAP
38
7C
CA
C2
CA
7C
38
ENDCHAR
STARTCHAR 00AA
ENCODING 170
SWIDTH 640 0
DWIDTH 8 0
BBX 5 7 1 1
BITMAP
70
10
F0
90
F8
00
F8
ENDCHAR
STARTCHAR 00AB
ENCODING 171
SWIDTH 640 0
DWIDTH 8 0
BBX 4 5 2 1
BITMAP
50
F0
A0
A0
50
ENDCHAR
STARTCHAR 00AC
ENCODING 172
SWIDTH 640 0
DWIDTH 8 0
BBX 6 3 1 3
BITMAP
FC
04
04
ENDCHAR
STARTCHAR 00AD
ENCODING 173
SWIDTH 640 0
DWIDTH 8 0
BBX 6 1 1 2
BITMAP
FC
ENDCHAR
STARTCHAR 00AE
ENCODING 174
SWIDTH 640 0
DWIDTH 8 0
BBX 7 7 0 1
BITMAP
38
7C
BA
AA
BA
44
38
ENDCHAR
STARTCHAR 00AF
ENCODING 175
SWIDTH 640 0
DWIDTH 8 0
BBX 4 1 2 7
BITMAP
F0
ENDCHAR
STARTCHAR 00B0
ENCODING 176
SWIDTH 640 0
DWIDTH 8 0
BBX 4 4 2 4
BITMAP
60
90
90
60
ENDCHAR
STARTCHAR 00B1
ENCODING 177
SWIDTH 640 0
DWIDTH 8 0
BBX 5 7 1 1
BITMAP
20
20
F8
20
20
00
F8
ENDCHAR
STARTCHAR 00B2
ENCODING 178
SWIDTH 640 0
DWIDTH 8 0
BBX 4 5 2 3
BITMAP
70
90
20
50
F0
ENDCHAR
STARTCHAR 00B3
ENCODING 179
SWIDTH 640 0
DWIDTH 8 0
BBX 4 5 2 3
BITMAP
70
90
20
10
F0
ENDCHAR
STARTCHAR 00B4
ENCODING 180
SWIDTH 640 0
DWIDTH 8 0
BBX 4 2 2 6
BITMAP
30
C0
ENDCHAR
STARTCHAR 00B5
ENCODING 181
SWIDTH 640 0
DWIDTH 8 0
BBX 6 8 0 -2
BITMAP
44
44
44
48
48
FC
80
80
ENDCHAR
STARTCHAR 00B6
ENCODING 182
SWIDTH 640 0
DWIDTH 8 0
BBX 7 9 1 -1
BITMAP
7E
F4
F4
F4
74
14
14
14
76
ENDCHAR
STARTCHAR 00B7
ENCODING 183
SWIDTH 640 0
DWIDTH 8 0
BBX 2 2 3 3
BITMAP
C0
C0
ENDCHAR
STARTCHAR 00B8
ENCODING 184
SWIDTH 640 0
DWIDTH 8 0
BBX 3 3 2 -3
BITMAP
40
60
E0
ENDCHAR
STARTCHAR 00B9
ENCODING 185
SWIDTH 640 0
DWIDTH 8 0
BBX 3 5 2 3
BITMAP
C0
40
40
40
E0
ENDCHAR
STARTCHAR 00BA
ENCODING 186
SWIDTH 640 0
DWIDTH 8 0
BBX 5 7 1 1
BITMAP
70
88
88
88
70
00
F8
ENDCHAR
STARTCHAR 00BB
ENCODING 187
SWIDTH 640 0
DWIDTH 8 0
BBX 4 5 2 1
BITMAP
A0
F0
50
F0
A0
ENDCHAR
STARTCHAR 00BC
ENCODING 188
SWIDTH 640 0
DWIDTH 8 0
BBX 6 9 1 -1
BITMAP
C0
40
40
EC
30
CC
34
3C
04
ENDCHAR
STARTCHAR 00BD
ENCODING 189
SWIDTH 640 0
DWIDTH 8 0
BBX 6 9 1 -1
BITMAP
C0
40
40
EC
10
7C
84
08
1C
ENDCHAR
STARTCHAR 00BE
ENCODING 190
SWIDTH 640 0
DWIDTH 8 0
BBX 6 9 1 -1
BITMAP
E0
40
20
EC
30
CC
34
3C
04
ENDCHAR
STARTCHAR 00BF
ENCODING 191
SWIDTH 640 0
DWIDTH 8 0
BBX 5 8 1 0
BITMAP
30
30
00
20
60
80
88
78
ENDCHAR
STARTCHAR 00C0
ENCODING 192
SWIDTH 640 0
DWIDTH 8 0
BBX 8 10 0 0
BITMAP
30
0C
78
18
2C
24
24
7E
42
E7
ENDCHAR
STARTCHAR 00C1
ENCODING 193
SWIDTH 640 0
DWIDTH 8 0
BBX 8 10 0 0
BITMAP
0C
30
78
18
2C
24
24
7E
42
E7
ENDCHAR
STARTCHAR 00C2
ENCODING 194
SWIDTH 640 0
DWIDTH 8 0
BBX 8 10 0 0
BITMAP
18
24
78
18
2C
24
24
7E
42
E7
ENDCHAR
STARTCHAR 00C3
ENCODING 195
SWIDTH 640 0
DWIDTH 8 0
BBX 8 10 0 0
BITMAP
3C
00
78
18
2C
24
24
7E
42
E7
ENDCHAR
STARTCHAR 00C4
ENCODING 196
SWIDTH 640 0
DWIDTH 8 0
BBX 8 10 0 0
BITMAP
24
00
78
18
2C
24
24
7E
42
E7
ENDCHAR
STARTCHAR 00C5
ENCODING 197
SWIDTH 640 0
DWIDTH 8 0
BBX 8 11 0 0
BITMAP
38
28
38
70
28
28
2C
24
7E
42
EF
ENDCHAR
STARTCHAR 00C6
ENCODING 198
SWIDTH 640 0
DWIDTH 8 0
BBX 7 8 0 0
BITMAP
7E
32
30
5C
58
70
52
FE
ENDCHAR
STARTCHAR 00C7
ENCODING 199
SWIDTH 640 0
DWIDTH 8 0
BBX 6 11 0 -3
BITMAP
3C
44
84
80
80
80
44
38
10
18
38
ENDCHAR
STARTCHAR 00C8
ENCODING 200
SWIDTH 640 0
DWIDTH 8 0
BBX 6 10 0 0
BITMAP
30
0C
FC
44
54
70
50
44
44
FC
ENDCHAR
STARTCHAR 00C9
ENCODING 201
SWIDTH 640 0
DWIDTH 8 0
BBX 6 10 0 0
BITMAP
0C
30
FC
44
54
70
50
44
44
FC
ENDCHAR
STARTCHAR 00CA
ENCODING 202
SWIDTH 640 0
DWIDTH 8 0
BBX 6 10 0 0
BITMAP
18
24
FC
44
54
70
50
44
44
FC
ENDCHAR
STARTCHAR 00CB
ENCODING 203
SWIDTH 640 0
DWIDTH 8 0
BBX 6 10 0 0
BITMAP
24
00
FC
44
54
70
50
44
44
FC
ENDCHAR
STARTCHAR 00CC
ENCODING 204
SWIDTH 640 0
DWIDTH 8 0
BBX 5 10 1 0
BITMAP
60
18
F8
20
20
20
20
20
20
F8
ENDCHAR
STARTCHAR 00CD
ENCODING 205
SWIDTH 640 0
DWIDTH 8 0
BBX 5 10 1 0
BITMAP
18
60
F8
20
20
20
20
20
20
F8
ENDCHAR
STARTCHAR 00CE
ENCODING 206
SWIDTH 640 0
DWIDTH 8 0
BBX 5 10 1 0
BITMAP
30
48
F8
20
20
20
20
20
20
F8
ENDCHAR
STARTCHAR 00CF
ENCODING 207
SWIDTH 640 0
DWIDTH 8 0
BBX 5 10 1 0
BITMAP
48
00
F8
20
20
20
20
20
20
F8
ENDCHAR
STARTCHAR 00D0
ENCODING 208
SWIDTH 640 0
DWIDTH 8 0
BBX 7 8 0 0
BITMAP
F8
44
42
F2
42
42
44
F8
ENDCHAR
STARTCHAR 00D1
ENCODING 209
SWIDTH 640 0
DWIDTH 8 0
BBX 7 10 0 0
BITMAP
3C
00
CE
64
64
54
54
4C
4C
E4
ENDCHAR
STARTCHAR 00D2
ENCODING 210
SWIDTH 640 0
DWIDTH 8 0
BBX 7 10 0 0
BITMAP
30
0C
38
44
82
82
82
82
44
38
ENDCHAR
STARTCHAR 00D3
ENCODING 211
SWIDTH 640 0
DWIDTH 8 0
BBX 7 10 0 0
BITMAP
0C
30
38
44
82
82
82
82
44
38
ENDCHAR
STARTCHAR 00D4
ENCODING 212
SWIDTH 640 0
DWIDTH 8 0
BBX 7 10 0 0
BITMAP
18
24
38
44
82
82
82
82
44
38
ENDCHAR
STARTCHAR 00D5
ENCODING 213
SWIDTH 640 0
DWIDTH 8 0
BBX 7 10 0 0
BITMAP
3C
00
38
44
82
82
82
82
44
38
ENDCHAR
STARTCHAR 00D6
ENCODING 214
SWIDTH 640 0
DWIDTH 8 0
BBX 7 10 0 0
BITMAP
24
00
38
44
82
82
82
82
44
38
ENDCHAR
STARTCHAR 00D7
ENCODING 215
SWIDTH 640 0
DWIDTH 8 0
BBX 5 5 1 2
BITMAP
88
50
20
50
88
ENDCHAR
STARTCHAR 00D8
ENCODING 216
SWIDTH 640 0
DWIDTH 8 0
BBX 7 8 0 0
BITMAP
3C
44
8A
92
92
A2
44
F8
ENDCHAR
STARTCHAR 00D9
ENCODING 217
SWIDTH 640 0
DWIDTH 8 0
BBX 7 10 0 0
BITMAP
30
0C
EE
44
44
44
44
44
44
38
ENDCHAR
STARTCHAR 00DA
ENCODING 218
SWIDTH 640 0
DWIDTH 8 0
BBX 7 10 0 0
BITMAP
0C
30
EE
44
44
44
44
44
44
38
ENDCHAR
STARTCHAR 00DB
ENCODING 219
SWIDTH 640 0
DWIDTH 8 0
BBX 7 10 0 0
BITMAP
18
24
EE
44
44
44
44
44
44
38
ENDCHAR
STARTCHAR 00DC
ENCODING 220
SWIDTH 640 0
DWIDTH 8 0
BBX 7 10 0 0
BITMAP
24
00
EE
44
44
44
44
44
44
38
ENDCHAR
STARTCHAR 00DD
ENCODING 221
SWIDTH 640 0
DWIDTH 8 0
BBX 7 10 0 0
BITMAP
0C
30
EE
44
28
28
10
10
10
7C
ENDCHAR
STARTCHAR 00DE
ENCODING 222
SWIDTH 640 0
DWIDTH 8 0
BBX 6 8 1 0
BITMAP
F0
40
78
44
44
78
40
F0
ENDCHAR
STARTCHAR 00DF
ENCODING 223
SWIDTH 640 0
DWIDTH 8 0
BBX 6 8 0 0
BITMAP
30
48
48
58
44
44
44
D8
ENDCHAR
STARTCHAR 00E0
ENCODING 224
SWIDTH 640 0
DWIDTH 8 0
BBX 6 8 1 0
BITMAP
60
18
70
08
08
78
88
FC
ENDCHAR
STARTCHAR 00E1
ENCODING 225
SWIDTH 640 0
DWIDTH 8 0
BBX 6 8 1 0
BITMAP
18
60
70
08
08
78
88
FC
ENDCHAR
STARTCHAR 00E2
ENCODING 226
SWIDTH 640 0
DWIDTH 8 0
BBX 6 8 1 0
BITMAP
30
48
70
08
08
78
88
FC
ENDCHAR
STARTCHAR 00E3
ENCODING 227
SWIDTH 640 0
DWIDTH 8 0
BBX 6 8 1 0
BITMAP
78
00
70
08
08
78
88
FC
ENDCHAR
STARTCHAR 00E4
ENCODING 228
SWIDTH 640 0
DWIDTH 8 0
BBX 6 8 1 0
BITMAP
48
00
70
08
08
78
88
FC
ENDCHAR
STARTCHAR 00E5
ENCODING 229
SWIDTH 640 0
DWIDTH 8 0
BBX 6 9 1 0
BITMAP
70
50
70
70
08
08
78
88
FC
ENDCHAR
STARTCHAR 00E6
ENCODING 230
SWIDTH 640 0
DWIDTH 8 0
BBX 7 6 0 0
BITMAP
6C
12
7E
90
90
EE
ENDCHAR
STARTCHAR 00E7
ENCODING 231
SWIDTH 640 0
DWIDTH 8 0
BBX 6 9 1 -3
BITMAP
7C
C4
80
80
C4
78
20
30
70
ENDCHAR
STARTCHAR 00E8
ENCODING 232
SWIDTH 640 0
DWIDTH 8 0
BBX 6 8 1 0
BITMAP
60
18
78
84
FC
80
C0
7C
ENDCHAR
STARTCHAR 00E9
ENCODING 233
SWIDTH 640 0
DWIDTH 8 0
BBX 6 8 1 0
BITMAP
18
60
78
84
FC
80
C0
7C
ENDCHAR
STARTCHAR 00EA
ENCODING 234
SWIDTH 640 0
DWIDTH 8 0
BBX 6 8 1 0
BITMAP
30
48
78
84
FC
80
C0
7C
ENDCHAR
STARTCHAR 00EB
ENCODING 235
SWIDTH 640 0
DWIDTH 8 0
BBX 6 8 1 0
BITMAP
48
00
78
84
FC
80
C0
7C
ENDCHAR
STARTCHAR 00EC
ENCODING 236
SWIDTH 640 0
DWIDTH 8 0
BBX 5 8 1 0
BITMAP
60
18
E0
20
20
20
20
F8
ENDCHAR
STARTCHAR 00ED
ENCODING 237
SWIDTH 640 0
DWIDTH 8 0
BBX 5 8 1 0
BITMAP
18
60
E0
20
20
20
20
F8
ENDCHAR
STARTCHAR 00EE
ENCODING 238
SWIDTH 640 0
DWIDTH 8 0
BBX 5 8 1 0
BITMAP
30
48
E0
20
20
20
20
F8
ENDCHAR
STARTCHAR 00EF
ENCODING 239
SWIDTH 640 0
DWIDTH 8 0
BBX 5 8 1 0
BITMAP
48
00
E0
20
20
20
20
F8
ENDCHAR
STARTCHAR 00F0
ENCODING 240
SWIDTH 640 0
DWIDTH 8 0
BBX 6 8 1 0
BITMAP
78
50
78
CC
84
84
CC
78
ENDCHAR
STARTCHAR 00F1
ENCODING 241
SWIDTH 640 0
DWIDTH 8 0
BBX 7 8 0 0
BITMAP
3C
00
F8
44
44
44
44
EE
ENDCHAR
STARTCHAR 00F2
ENCODING 242
SWIDTH 640 0
DWIDTH 8 0
BBX 6 8 1 0
BITMAP
60
18
78
CC
84
84
CC
78
ENDCHAR
STARTCHAR 00F3
ENCODING 243
SWIDTH 640 0
DWIDTH 8 0
BBX 6 8 1 0
BITMAP
18
60
78
CC
84
84
CC
78
ENDCHAR
STARTCHAR 00F4
ENCODING 244
SWIDTH 640 0
DWIDTH 8 0
BBX 6 8 1 0
BITMAP
30
48
78
CC
84
84
CC
78
ENDCHAR
STARTCHAR 00F5
ENCODING 245
SWIDTH 640 0
DWIDTH 8 0
BBX 6 8 1 0
BITMAP
78
00
78
CC
84
84
CC
78
ENDCHAR
STARTCHAR 00F6
ENCODING 246
SWIDTH 640 0
DWIDTH 8 0
BBX 6 8 1 0
BITMAP
48
00
78
CC
84
84
CC
78
ENDCHAR
STARTCHAR 00F7
ENCODING 247
SWIDTH 640 0
DWIDTH 8 0
BBX 5 5 1 1
BITMAP
20
00
F8
00
20
ENDCHAR
STARTCHAR 00F8
ENCODING 248
SWIDTH 640 0
DWIDTH 8 0
BBX 6 6 1 0
BITMAP
74
C8
94
A4
4C
F8
ENDCHAR
STARTCHAR 00F9
ENCODING 249
SWIDTH 640 0
DWIDTH 8 0
BBX 7 8 0 0
BITMAP
30
0C
CC
44
44
44
44
3E
ENDCHAR
STARTCHAR 00FA
ENCODING 250
SWIDTH 640 0
DWIDTH 8 0
BBX 7 8 0 0
BITMAP
0C
30
CC
44
44
44
44
3E
ENDCHAR
STARTCHAR 00FB
ENCODING 251
SWIDTH 640 0
DWIDTH 8 0
BBX 7 8 0 0
BITMAP
18
24
CC
44
44
44
44
3E
ENDCHAR
STARTCHAR 00FC
ENCODING 252
SWIDTH 640 0
DWIDTH 8 0
BBX 7 8 0 0
BITMAP
24
00
CC
44
44
44
44
3E
ENDCHAR
STARTCHAR 00FD
ENCODING 253
SWIDTH 640 0
DWIDTH 8 0
BBX 7 10 0 -2
BITMAP
0C
30
EE
44
24
28
10
10
20
F0
ENDCHAR
STARTCHAR 00FE
ENCODING 254
SWIDTH 640 0
DWIDTH 8 0
BBX 7 10 0 -2
BITMAP
C0
40
7C
66
42
42
66
5C
40
F0
ENDCHAR
STARTCHAR 00FF
ENCODING 255
SWIDTH 640 0
DWIDTH 8 0
BBX 7 10 0 -2
BITMAP
24
00
EE
44
24
28
10
10
20
F0
ENDCHAR
ENDFONT
